# xmcd
# 
# Track frame offsets:
#     150
#     22523
#     41123
#     72312
#     103496
# 
# Disc length: 1687
# 
# Revision: 0
# Processed by: cddbd v1.5.2PL0 Copyright (c) Steve Scherf et al.
# Submitted via: fre:ac v1.0.17
# 
DISCID=3d069505
DTITLE=鈴木亜美 - KISS KISS KISS
DYEAR=2009
DGENRE=JPop
TTITLE0=KISS KISS KISS(Japanese Version)
TTITLE1=aishiteru...
TTITLE2=KISS KISS KISS(Extended Japanese Version)
TTITLE3=KISS KISS KISS(Extended English Version)
TTITLE4=aishiteru...(Extended)
EXTD=
EXTT0=
EXTT1=
EXTT2=
EXTT3=
EXTT4=
PLAYORDER=
